<svg width="118" height="27" viewBox="0 0 118 27" fill="none" xmlns="http://www.w3.org/2000/svg">
<g id="Group 3">
<g id="Group">
<path id="Vector" d="M1.51633 10.105C1.74878 7.57934 2.95076 5.29185 4.90062 3.67104C6.85048 2.05022 9.31871 1.28303 11.8442 1.51551C14.3696 1.748 16.6573 2.94995 18.2781 4.89981C21.4654 8.7325 21.1215 14.349 17.6099 17.7716L21.7281 22.7256C21.9929 23.0467 21.9497 23.516 21.6294 23.7854C21.5257 23.8746 21.4009 23.9247 21.2761 23.9461C21.0217 23.9899 20.7489 23.8987 20.5696 23.6866L16.4514 18.7327C15.2714 19.5689 13.9524 20.0956 12.5973 20.3286C9.35973 20.8851 5.91663 19.7485 3.67108 17.044C2.05101 15.0988 1.28467 12.6352 1.51635 10.1051L1.51633 10.105ZM4.8258 16.0882C7.64678 19.4794 12.6979 19.9445 16.0889 17.1234C19.48 14.3022 19.9406 9.2521 17.1248 5.86447C15.757 4.22346 13.8354 3.21096 11.7067 3.01503C10.9958 2.95152 10.2907 2.97749 9.60624 3.09516C8.24182 3.32971 6.95254 3.918 5.86163 4.82933C4.22061 6.19714 3.20811 8.11874 3.01218 10.2475C2.81547 12.3717 3.46253 14.4461 4.82568 16.0878L4.8258 16.0882Z" fill="black"/>
</g>
<g id="Group_2">
<path id="Vector_2" d="M91.9412 7.88297H117.058C117.578 7.88297 118 7.46127 118 6.94149C118 6.4217 117.578 6 117.058 6H91.9412C91.4211 6 90.9998 6.4217 90.9998 6.94149C90.9998 7.46092 91.4211 7.88297 91.9412 7.88297Z" fill="black"/>
<path id="Vector_3" d="M91.9412 14.7917H117.058C117.578 14.7917 118 14.37 118 13.8502C118 13.3304 117.578 12.9087 117.058 12.9087H91.9412C91.4211 12.9087 90.9998 13.3304 90.9998 13.8502C90.9998 14.37 91.4211 14.7917 91.9412 14.7917Z" fill="black"/>
<path id="Vector_4" d="M91.9412 21.7004H117.058C117.578 21.7004 118 21.2787 118 20.7589C118 20.2391 117.578 19.8174 117.058 19.8174H91.9412C91.4211 19.8174 90.9998 20.2391 90.9998 20.7589C90.9998 21.2794 91.4211 21.7004 91.9412 21.7004Z" fill="black"/>
</g>
</g>
</svg>
